<svg width="1286" height="600" viewBox="0 0 1286 600" fill="none" xmlns="http://www.w3.org/2000/svg">
<path fill-rule="evenodd" clip-rule="evenodd" d="M1286 0H244.373V1.08033H265.246V598H276.762V1.08033L1286 1.08033V0ZM1.43949 126H0L22.492 0.179688H26.4505L54.3406 126H42.6447L33.8279 86.7597H8.45698L1.43949 126ZM20.1528 21.4197H19.7929L18.5334 28.4397L8.63691 85.6797H33.468L21.5923 28.4397L20.1528 21.4197ZM115.205 126V0.179688H126.721V62.6397H156.59V0.179688H168.106V126H156.59V63.7197H126.721V126H115.205ZM196.598 0.179688V126H235.284V124.92H208.114V62.2797H231.505V61.1997H208.114V1.2597H235.284V0.179688H196.598ZM530.137 577.4C529.337 572.734 529.404 567.6 530.337 562L542.537 493C543.471 487.534 545.137 482.6 547.537 478.2C550.071 473.667 553.071 469.8 556.537 466.6C560.137 463.4 564.204 460.934 568.737 459.2C573.271 457.334 578.071 456.4 583.137 456.4C588.071 456.4 592.471 457.334 596.337 459.2C600.204 460.934 603.337 463.4 605.737 466.6C608.137 469.8 609.737 473.667 610.537 478.2C611.471 482.6 611.404 487.534 610.337 493L598.137 562C597.337 567.6 595.671 572.734 593.137 577.4C590.604 581.934 587.537 585.934 583.937 589.4C580.471 592.734 576.471 595.267 571.937 597C567.537 598.734 562.737 599.6 557.537 599.6C552.471 599.6 548.004 598.734 544.137 597C540.404 595.134 537.337 592.6 534.937 589.4C532.537 586.067 530.937 582.067 530.137 577.4ZM565.537 471C564.337 473.934 563.404 477.267 562.737 481L546.137 575.2C545.471 578.934 545.204 582.334 545.337 585.4C545.604 588.334 546.204 590.8 547.137 592.8C548.071 594.667 549.404 596.067 551.137 597C553.004 597.934 555.271 598.4 557.937 598.4C560.604 598.4 562.937 597.934 564.937 597C567.071 596.067 569.004 594.6 570.737 592.6C572.471 590.6 573.871 588.2 574.937 585.4C576.137 582.467 577.071 579.067 577.737 575.2L594.537 481C595.204 477.134 595.471 473.734 595.337 470.8C595.204 467.867 594.604 465.467 593.537 463.6C592.604 461.6 591.204 460.134 589.337 459.2C587.604 458.134 585.471 457.6 582.937 457.6C580.271 457.6 577.871 458.134 575.737 459.2C573.604 460.134 571.671 461.6 569.937 463.6C568.337 465.6 566.871 468.067 565.537 471ZM456.8 598H438.8L463.6 458.2H530L505.2 598H487L511.6 459.4H481.4L456.8 598ZM679.312 598L666.912 539.6C666.246 536.4 665.379 533.8 664.312 531.8C663.379 529.667 662.246 528 660.912 526.8C659.579 525.6 658.046 524.8 656.312 524.4C654.579 524 652.712 523.8 650.712 523.8H648.696L693.712 458.2H691.712L646.941 523.8H640.369L651.912 458.2H633.912L609.112 598H627.312L640.158 525H640.912C642.912 525.134 644.446 525.867 645.512 527.2C646.579 528.534 647.446 531.067 648.112 534.8L660.512 598H679.312ZM688.198 598H686.598L738.198 458.2H743.398L752.598 598H733.998L730.998 554.4H704.198L688.198 598ZM727.598 491.2H727.198L724.198 499.2L704.798 553.2H730.998L728.198 499.2L727.598 491.2ZM789.326 599.6C795.46 599.6 801.193 598.8 806.526 597.2C811.993 595.6 816.793 593.334 820.926 590.4C825.06 587.467 828.526 583.867 831.326 579.6C834.126 575.2 835.993 570.267 836.926 564.8L838.526 555.8C839.326 551.267 839.393 547.267 838.726 543.8C838.06 540.334 836.726 537.4 834.726 535C832.726 532.467 830.126 530.467 826.926 529C823.86 527.534 820.193 526.667 815.926 526.4L811.726 526L811.926 525.2L816.326 525C820.326 524.734 823.993 523.934 827.326 522.6C830.793 521.134 833.793 519.267 836.326 517C838.993 514.6 841.193 511.667 842.926 508.2C844.793 504.6 846.126 500.6 846.926 496.2L848.126 489C849.06 483.934 848.993 479.4 847.926 475.4C846.86 471.4 844.926 468 842.126 465.2C839.326 462.4 835.793 460.267 831.526 458.8C827.26 457.2 822.393 456.4 816.926 456.4C810.66 456.4 804.593 457.4 798.726 459.4C792.86 461.4 787.793 464.267 783.526 468L784.326 468.8C788.06 465.6 792.193 463.134 796.726 461.4C801.393 459.667 805.86 458.8 810.126 458.8C817.726 458.8 823.393 461.467 827.126 466.8C830.86 472 831.926 479.334 830.326 488.8L828.726 497.2C827.126 506.4 823.993 513.334 819.326 518C814.66 522.667 808.926 525 802.126 525H797.526L797.326 526.2H801.926C805.66 526.2 808.86 526.8 811.526 528C814.326 529.2 816.526 531 818.126 533.4C819.86 535.667 820.926 538.534 821.326 542C821.726 545.467 821.593 549.467 820.926 554L818.726 565.6C816.993 575.734 812.86 583.6 806.326 589.2C799.926 594.667 792.26 597.4 783.326 597.4C779.193 597.4 775.06 596.8 770.926 595.6C766.926 594.4 762.993 592.6 759.126 590.2L758.326 591.2C762.46 594 767.193 596.134 772.526 597.6C777.86 598.934 783.46 599.6 789.326 599.6ZM837.222 598H835.622L887.222 458.2H892.422L901.622 598H883.022L880.022 554.4H853.222L837.222 598ZM876.622 491.2H876.222L873.222 499.2L853.822 553.2H880.022L877.222 499.2L876.622 491.2ZM902.428 595.8C904.428 597.134 906.561 598.067 908.828 598.6C911.095 599.267 913.495 599.6 916.028 599.6C919.761 599.6 923.361 598.734 926.828 597C930.295 595.267 933.495 592.6 936.428 589C939.361 585.267 942.028 580.6 944.428 575C946.961 569.267 949.028 562.467 950.628 554.6L971.028 459.4H1000.43L976.028 598H994.028L1018.63 458.2H953.228L930.228 567.4C929.028 573.4 927.761 578.334 926.428 582.2C925.095 585.934 923.695 589 922.228 591.4C920.895 593.667 919.428 595.267 917.828 596.2C916.228 597.134 914.561 597.6 912.828 597.6C911.095 597.6 909.495 597.4 908.028 597C906.428 596.467 904.828 595.667 903.228 594.6L902.428 595.8ZM1019 577.4C1018.2 572.734 1018.27 567.6 1019.2 562L1031.4 493C1032.34 487.534 1034 482.6 1036.4 478.2C1038.94 473.667 1041.94 469.8 1045.4 466.6C1049 463.4 1053.07 460.934 1057.6 459.2C1062.14 457.334 1066.94 456.4 1072 456.4C1076.94 456.4 1081.34 457.334 1085.2 459.2C1089.07 460.934 1092.2 463.4 1094.6 466.6C1097 469.8 1098.6 473.667 1099.4 478.2C1100.34 482.6 1100.27 487.534 1099.2 493L1087 562C1086.2 567.6 1084.54 572.734 1082 577.4C1079.47 581.934 1076.4 585.934 1072.8 589.4C1069.34 592.734 1065.34 595.267 1060.8 597C1056.4 598.734 1051.6 599.6 1046.4 599.6C1041.34 599.6 1036.87 598.734 1033 597C1029.27 595.134 1026.2 592.6 1023.8 589.4C1021.4 586.067 1019.8 582.067 1019 577.4ZM1054.4 471C1053.2 473.934 1052.27 477.267 1051.6 481L1035 575.2C1034.34 578.934 1034.07 582.334 1034.2 585.4C1034.47 588.334 1035.07 590.8 1036 592.8C1036.94 594.667 1038.27 596.067 1040 597C1041.87 597.934 1044.14 598.4 1046.8 598.4C1049.47 598.4 1051.8 597.934 1053.8 597C1055.94 596.067 1057.87 594.6 1059.6 592.6C1061.34 590.6 1062.74 588.2 1063.8 585.4C1065 582.467 1065.94 579.067 1066.6 575.2L1083.4 481C1084.07 477.134 1084.34 473.734 1084.2 470.8C1084.07 467.867 1083.47 465.467 1082.4 463.6C1081.47 461.6 1080.07 460.134 1078.2 459.2C1076.47 458.134 1074.34 457.6 1071.8 457.6C1069.14 457.6 1066.74 458.134 1064.6 459.2C1062.47 460.134 1060.54 461.6 1058.8 463.6C1057.2 465.6 1055.74 468.067 1054.4 471ZM1104.75 561.8C1103.82 567.534 1103.68 572.734 1104.35 577.4C1105.15 582.067 1106.75 586.067 1109.15 589.4C1111.55 592.734 1114.68 595.267 1118.55 597C1122.42 598.734 1126.88 599.6 1131.95 599.6C1139.28 599.6 1145.88 597.934 1151.75 594.6C1157.75 591.134 1162.62 586.267 1166.35 580L1165.15 579.4C1163.68 582.2 1161.82 584.734 1159.55 587C1157.42 589.267 1155.02 591.2 1152.35 592.8C1149.68 594.4 1146.82 595.667 1143.75 596.6C1140.68 597.534 1137.62 598 1134.55 598C1128.42 598 1124.22 596.067 1121.95 592.2C1119.68 588.334 1119.28 582.134 1120.75 573.6L1137.15 481.6C1138.48 474 1141.08 468.2 1144.95 464.2C1148.95 460.2 1154.02 458.2 1160.15 458.2C1164.42 458.2 1168.22 459.067 1171.55 460.8C1175.02 462.534 1177.95 465.067 1180.35 468.4L1181.35 467.6C1178.55 463.867 1175.15 461.067 1171.15 459.2C1167.15 457.334 1162.55 456.4 1157.35 456.4C1152.15 456.4 1147.28 457.334 1142.75 459.2C1138.35 460.934 1134.35 463.4 1130.75 466.6C1127.28 469.8 1124.35 473.667 1121.95 478.2C1119.55 482.734 1117.88 487.734 1116.95 493.2L1104.75 561.8ZM1198.17 458.2H1216.17L1205.37 519.4H1218.37C1223.04 519.4 1227.17 520.267 1230.77 522C1234.5 523.6 1237.57 525.934 1239.97 529C1242.37 531.934 1244.04 535.467 1244.97 539.6C1246.04 543.6 1246.1 548 1245.17 552.8L1242.97 565.4C1242.17 569.934 1240.64 574.2 1238.37 578.2C1236.1 582.067 1233.37 585.467 1230.17 588.4C1226.97 591.334 1223.37 593.667 1219.37 595.4C1215.5 597.134 1211.5 598 1207.37 598H1173.37L1198.17 458.2ZM1220.97 583C1222.17 579.8 1223.17 575.867 1223.97 571.2L1228.17 546.8C1229.77 538.134 1229.5 531.6 1227.37 527.2C1225.37 522.8 1221.9 520.6 1216.97 520.6H1205.17L1191.57 596.8H1204.37C1207.04 596.8 1209.37 596.334 1211.37 595.4C1213.37 594.467 1215.17 593 1216.77 591C1218.37 588.867 1219.77 586.2 1220.97 583Z" fill="#111111"/>
</svg>
